<!--?xml version="1.0" encoding="utf-8"?-->
<svg version="1.1" x="0px" y="0px" id="iconz0521023158121000" viewBox="0 0 512 512" xmlns="http://www.w3.org/2000/svg" style="enable-background:new 0 0 512 512;" xml:space="preserve"><style type="text/css">
.baseF{fill:#FFFFFF}
.baseB{fill:#232256}
.eyeF{fill:#FFFFFF}
.eyeB{fill:#232256}
.eyeT{fill:#BDC7D6}
.hairF{fill:#FFFFFF}
.hairB{fill:#232256}
.hairU{fill:#5E7AA5}
.hairT{fill:#BDC7D6}
.noseF{fill:#FFFFFF}
.noseB{fill:#232256}
.noseU{fill:#5E7AA5}
.mayugeB{fill:#232256}
.mayugeU{fill:#5E7AA5}
.mayugeT{fill:#BDC7D6}
.mayugeF{fill:#FFFFFF}
.mouthF{fill:#FFFFFF}
.mouthB{fill:#232256}
.mouthT{fill:#BDC7D6}
.mouthU{fill:#5E7AA5}
.hatF{fill:#FFFFFF}
.hatB{fill:#232256}
.hatU{fill:#5E7AA5}
.hatT{fill:#BDC7D6}
.higeU{fill:#5E7AA5}
.higeB{fill:#232256}
.higeF{fill:#FFFFFF}
.bodyF{fill:#FFFFFF}
.bodyB{fill:#232256}
.bodyU{fill:#5E7AA5}
.bodyT{fill:#BDC7D6}
.bodyS{fill:#8DA6C9}
.bodyH{fill:#FFFFFF}
.glassF{fill:#FFFFFF}
.glassB{fill:#232256}
.glassT{fill:#BDC7D6}
.glassU{fill:#5E7AA5}
.kirakiraF{fill:#FFFFFF}
.kirakiraB{fill:#232256}
.kirakiraU{fill:#5E7AA5}
.kirakiraT{fill:#BDC7D6}
.kirakiraH{fill:#FFFFFF}
.backF{fill:#FFFFFF}
.backB{fill:#232256}
.backU{fill:#5E7AA5}
.backS{fill:#8DA6C9}
.backA{fill:#FFE38B}
.backG{fill:#EEEEEF}
.backC{fill:#19DB9F}
.backD{fill:#DBBCA1}
</style>
<g class="icosvg">
<g>
	<path class="bodyH" d="M462.318,648.987c0,0,0-42.134,0-73.971c4.424-117.087-58.553-168.828-129.766-200.789   c-18.129-9.741-20.552-10.697-77.135-11.47c-56.583,0.773-59.006,1.73-77.135,11.47c-71.354,31.958-134.24,84.018-129.764,200.789   c-0.002,31.837-0.002,73.971-0.002,73.971H462.318z"></path>
	<path class="bodyU" d="M368.186,392.813c-18.534-13.289-31.392-16.772-31.392-16.772c-9.956,103.29-152.812,103.263-162.755,0   c0,0-12.858,3.483-31.392,16.772c-37.193,26.67-94.132,80.102-94.132,135.028c0,46.139,0,126.042,0,126.042   c103.139,0,310.69,0,413.803,0c0,0,0-79.903,0-126.042C462.318,472.915,405.379,419.482,368.186,392.813z"></path>
	<path class="bodyB" d="M467.595,648.987c0,0,0-42.134,0-73.971c-0.002-37.185-3.753-66.337-12.521-91.031   c-17.804-59.261-92.53-104.336-120.322-114.567c-7.697-4.138-13.34-7.081-21.75-8.818c-10.833-2.237-25.776-2.672-57.586-3.121   c-28.283,0.394-43.242,0.797-53.801,2.436c-10.341,1.571-16.57,4.655-25.54,9.507C147.52,380.021,73.515,425.001,55.761,483.987   c-8.77,24.692-12.52,53.844-12.523,91.029c0,31.838,0,73.971,0,73.971c0.108,6.87,10.424,6.993,10.554,0   c1.978-70.107-13.68-162.705,51.347-220.795c22.78-21.151,43.426-34.222,66.485-45.118v7.88   c18.899,90.528,148.693,90.504,167.585,0.004v-8.199c31.552,14.653,90.998,54.802,105.918,104.761   c8.206,23.079,11.917,50.998,11.915,87.496c0,31.838,0,73.971,0,73.971C457.098,655.804,467.487,656.012,467.595,648.987   L467.595,648.987z M182.177,389.777v-11.645c6.587-3.509,10.645-5.667,17.807-7.201c9.102-1.924,23.696-2.48,55.432-2.898   c28.204,0.378,42.879,0.843,52.174,2.309c9.055,1.448,13.352,3.68,21.066,7.79l-0.001,11.644   C311.777,467.795,199.043,467.772,182.177,389.777z"></path>
</g>

<g>
	<path class="baseF" d="M370.823,212.278h-1.083c-4.502-69.283-37.917-124.793-113.739-124.793
		c-75.823,0-109.238,55.51-113.74,124.793h-1.083c-14.838-8.774-36.38,8.077-32.988,28.423c7.12,42.713,9.94,53.304,22.629,59.714
		c6.476,3.274,12.413,3.39,12.413,3.39h1.277c4.228,26.863,10.38,52.753,21.211,67.835c16.544,23.046,61.366,38.076,90.281,38.076
		c28.914,0,73.736-15.03,90.281-38.076c10.83-15.082,16.982-40.972,21.211-67.835h1.277c0,0,5.937-0.115,12.412-3.39
		c12.691-6.41,15.509-17.001,22.629-59.714C407.203,220.355,385.661,203.504,370.823,212.278z"></path>
	<path class="baseB" d="M374.474,204.316c-3.994-43.045-19.733-85.533-58.115-108.137c-66.247-35.822-152.387-7.523-171.615,69.611
		c-1.194,3.97-5.515,22.021-7.546,38.468c-19.028-4.216-38.167,16.827-34.211,36.392c5.76,23.926,3.189,50.922,25.449,63.556
		c3.829,2.019,8.448,3.229,12.032,3.715c1.333,9.477,2.762,17.72,4.363,25.014c4.646,19.023,8.911,35.243,23.705,48.301
		c19.349,16.445,47.243,31.031,73.402,33.264c36.571,4.404,74.152-9.497,101.529-33.265c17.988-16.677,20.904-35.453,26.053-60.356
		c0.7-4.045,1.368-8.348,2.015-12.943c5.381-0.743,12.751-3.321,17.155-6.886c16.243-14.077,16.907-43.205,20.757-65.556
		C409.894,217.524,391.839,200.225,374.474,204.316z M393.888,265.163c-2.372,14.084-6.952,29.018-20.938,31.94
		c0.886-7.262,1.739-15.176,2.58-23.858c0.693-6.754-9.897-7.878-10.504-1.017l0,0c-4.905,40.098-4.773,61.057-19.796,91.022
		c-25.69,32.844-75.829,48.507-116.628,38.371c-22.22-6.925-48.458-19.423-61.828-38.371c-7.695-13.998-10.461-25.53-13.891-44.172
		c-2.162-12.484-4.056-27.757-5.905-46.85c-0.281-2.901-2.86-5.025-5.761-4.744c-2.901,0.281-5.024,2.86-4.743,5.761
		c0.84,8.669,1.691,16.562,2.575,23.816c-14.068-3.003-18.414-17.342-21.001-32.226c-0.818-9.186-7.698-26.161-3.223-37.587
		c3.397-8.052,12.799-15.191,21.414-12.335c-0.51,10.453,0.698,18.396,5.485,18.443c2.916-0.001,5.279-2.363,5.279-5.278h0
		c-2.179-98.241,61.423-164.004,159.024-125.49c45.561,23.119,58.867,76.261,58.975,125.49c-0.167,6.806,10.702,6.877,10.554,0
		c-0.003-4.287-0.114-8.606-0.325-12.935c11.55-4.274,23.955,8.635,23.661,20.35C397.841,246.224,395.214,257.789,393.888,265.163z"></path>
</g>


<g>

		<path class="hairB" d="M412.4,151.3c-7-11.3-9.9-25.7-17.5-44.9c-10.3-25.7-58.6-91.7-127.5-76c-14.2,3.2-25.4,9.2-34.3,16.4
		c-7.8-2-15.9-3.1-24.2-3.1c-51.5,0-75.1,37-85.4,62.7c-7.7,19.2-18.9,33.6-25.9,44.9c-7,11.3,10.8,12.4,10.8,12.4
		c-11.4,16.5-13.5,24.7-7.6,26.8c5.9,2.1,7.6-6.2,7.6-6.2v29.3l9.2-1.7l5.5-2.5l0,0l-5.5,2.5c7.1,3,13.3,14.2,16.9,32.9
		c0.9,4.8,2.1,9.4,3.3,13.7c1.5,5.1,9.4,4.4,9.8-0.9l0.7-8.4l0,0c0,0,24.5-27.1,27.6-71.3c0,0,0-4.3,4.3-14.3
		c14.1,42.9,56.9,57.8,72.2,56.9c17.7-1.1-10.1-12.8-16.7-39.7c0,0,36.6,41.7,69.4,47.5c32.8,5.9-3.1-30,8.2-23.7
		c5.7,3.2,18.7,9.2,30.2,14.4c8,19.3,17.9,30.2,17.9,30.2l0.4-0.6l0.8,9c0.5,5.3,8.4,6,9.8,0.9c1.2-4.3,2.4-9,3.3-13.7
		c3.5-18.6,9.8-29.8,16.8-32.8l8.9,1.6v-29.3c0,0,1.6,8.2,7.6,6.2c5.9-2.1,3.8-10.3-7.6-26.8C401.5,163.7,419.4,162.6,412.4,151.3z"></path>
</g>


<g>
	<path class="mouthB" d="M237.869,348.245c1.402,0.558,2.757,0.839,4.082,0.991c0.175,5.527,0.748,10.695,2.235,15.035
		c0.923,2.644,2.204,5.058,4.21,6.945c1.982,1.901,4.806,3.066,7.771,3.033c2.964,0.033,5.788-1.132,7.77-3.033
		c2.996-2.859,4.419-6.773,5.337-11.13c0.676-3.314,0.94-7.02,1.063-10.847c1.333-0.148,2.705-0.427,4.13-0.998
		c1.969-0.787,2.926-3.023,2.139-4.992c-0.788-1.969-3.022-2.925-4.99-2.137l-0.001-0.002c-1.18,0.469-2.047,0.602-2.781,0.605
		c-1.484,0.005-2.774-0.609-4.707-1.732c-0.951-0.544-2.019-1.191-3.321-1.748c-1.293-0.555-2.868-1.012-4.64-1.01
		c-1.773-0.002-3.349,0.455-4.644,1.01c-1.948,0.846-3.395,1.852-4.662,2.494c-1.278,0.659-2.235,0.984-3.369,0.989
		c-0.721-0.002-1.598-0.138-2.788-0.609c-1.972-0.785-4.205,0.178-4.988,2.152C234.934,345.229,235.898,347.46,237.869,348.245z"></path>
	<path class="mouthF" d="M252.037,346.635c0.996-0.577,1.827-1.055,2.5-1.338c0.681-0.288,1.155-0.391,1.63-0.394
		c0.473,0.002,0.946,0.105,1.626,0.394c1.014,0.415,2.36,1.308,4.133,2.243c0.249,0.131,0.536,0.255,0.807,0.384
		c-0.118,5.538-0.677,10.528-1.842,13.83c-0.65,1.894-1.464,3.178-2.199,3.853c-0.759,0.666-1.325,0.928-2.525,0.961
		c-1.201-0.033-1.767-0.295-2.526-0.961c-1.117-0.984-2.349-3.466-3.057-7.062c-0.613-2.984-0.913-6.663-0.997-10.631
		C250.499,347.483,251.341,347.033,252.037,346.635z"></path>
</g>


<g>
	<path class="noseB" d="M248.98,301.597c1.884,0,1.561,3.091,1.842,4.671c0.614,3.436,4.73,2.988,8.142,2.988
		c6.035,0,3.712,4.973,0,4.973c-3.715,0-12.537,1.062-12.537-2.653S245.066,301.597,248.98,301.597z"></path>
</g>


<g>
	<g>
		<path class="eyeB" d="M198.493,280.757c-4.785-1.74,8.114-16.956,16.249-16.992c5.803-0.026,3.33,5.386-2.057,8.972
			C206.705,276.717,203.6,282.614,198.493,280.757z"></path>
		<path class="eyeB" d="M312.822,280.757c4.785-1.74-8.114-16.956-16.249-16.992c-5.803-0.026-3.33,5.386,2.057,8.972
			C304.61,276.717,307.715,282.614,312.822,280.757z"></path>
	</g>
</g>


<g>
	<g>
		<path class="mayugeB" d="M240.01,236.496c-13.397,0.22-43.431-1.002-48.933,0.413c-2.978,0.765-8.284,7.444-6.412,7.444
			c4.51,0,55.345,0,55.345,0V236.496z"></path>
		<path class="mayugeB" d="M271.99,236.496c13.397,0.22,43.431-1.002,48.933,0.413c2.978,0.765,8.284,7.444,6.412,7.444
			c-4.053,0-55.345,0-55.345,0V236.496z"></path>
	</g>
</g>

</g></svg>